<svg xmlns="http://www.w3.org/2000/svg" width="430" height="430" style="width:100%;height:100%;transform:translate3d(0,0,0);content-visibility:visible" viewBox="0 0 430 430"><defs><clipPath id="c"><path d="M0 0h430v430H0z"/></clipPath><clipPath id="g"><path d="M0 0h430v430H0z"/></clipPath><clipPath id="f"><path d="M0 0h430v430H0z"/></clipPath><clipPath id="d"><path d="M0 0h430v430H0z"/></clipPath><filter id="a" width="100%" height="100%" x="0%" y="0%" filterUnits="objectBoundingBox"><feComponentTransfer in="SourceGraphic"><feFuncA tableValues="1.0 0.0" type="table"/></feComponentTransfer></filter><path id="b" style="display:none"/><mask id="e" mask-type="alpha"><g filter="url(#a)"><path fill="#fff" d="M0 0h430v430H0z" opacity="0"/><use xmlns:ns1="http://www.w3.org/1999/xlink" ns1:href="#b"/></g></mask></defs><g clip-path="url(#c)"><g clip-path="url(#d)" style="display:none"><g mask="url(#e)" style="display:none"><path fill="none" class="secondary"/></g><path fill="none" class="secondary" style="display:none"/><path fill="none" class="primary" style="display:none"/></g><g fill="none" stroke-linecap="round" stroke-linejoin="round" clip-path="url(#f)" style="display:block"><path stroke="#121331" stroke-width="14" d="M160.089 70.687c.004-.38-.273-.688-.618-.688 0 0 0 0 0 0l-36.876.064s0 0 0 0c-20.006.035-37.37.035-38.75 0 0 0 0 0 0 0-1.38-.035-9.446 11.138-18 24.936 0 0 0 0 0 0-8.554 13.798-33.424 25-55.5 25h-14c-22.076 0-47.954-11.202-57.75-25 0 0 0 0 0 0-9.796-13.798-18.982-25-20.5-25 0 0 0 0 0 0h-40.094s0 0 0 0h-37.688s0 0 0 0c-.19 0-.344.253-.344.564 0 0 0 0 0 0l-.058 40.564-.008 6c-.032 22.076 17.866 40 39.942 40h240.124c22.076 0 40.023-17.924 40.052-40l.008-5.752c.029-22.076.056-40.308.06-40.688 0 0 0 0 0 0zM24.477-54.125h50.368s0 0 0 0c3.587 0 8.148 2.639 10.178 5.89 0 0 0 0 0 0 2.03 3.251 13.292 21.018 25.133 39.65l49.941 78.584m-320.128 0 50.273-77.604a53963.353 53963.353 0 0 0 25.925-40.046s0 0 0 0c2.306-3.573 7.315-6.474 11.178-6.474 0 0 0 0 0 0h48.808" class="primary" style="display:block" transform="translate(215 215)"/><path stroke="#08A88A" stroke-width="13.239" d="M-55.349 2.722.323 58.398 56.347 2.374M.35 57.876v-215.003" class="secondary" style="display:block" transform="translate(215 215)"/></g><g fill="none" clip-path="url(#g)" style="display:none"><path class="secondary" style="display:none"/><g style="display:none"><path class="primary"/><path class="primary"/></g></g></g></svg>